<?xml version="1.0" encoding="UTF-8"?>
<svg id="a" data-name="Layer 1" xmlns="http://www.w3.org/2000/svg" width="95.033" height="33.703" viewBox="0 0 95.033 33.703">
  <path d="M73.102,33.702c-.211-.003-.424-.053-.622-.156-.131-.069-13.509-7.116-44.689-7.965-1.018-.028-2.101-.637-2.033-1.551.076-1.022,1.455-1.557,6.839-2.396,6.449-1.005,13.809-1.925,25.078-4.634.961-.231,1.452-.314.666-1.637-.934-1.573-1.891-3.015-2.633-4.142-.281-.427-.695-.65-1.218-.596-.597.061-.923.399-.993.848-.181,1.153-.585,1.827-1.07,2.242-.44.376-1.196.364-1.748.124-1.055-.459-2.061-1.447-2.681-2.621-.247-.467-.614-.615-.952-.669-.222-.036-.393-.04-.725.019-.459.082-.679.317-.826.637-.666,1.457-1.232,2.59-2.062,2.891-.761.276-1.591.007-2.029-.696-.564-.905-.856-1.465-1.388-2.386-.2-.377-.415-.627-.934-.648-11.361-.522-30.144-.798-36.775-1.636C.312,8.478-.278,7.344.115,6.381c.742-1.819,5.043-.683,11.075-.192,4.847.395,15.907,1.161,25.155,1.451,1.767.055,1.54-.313.707-1.658-.386-.622-.634-1.02-1.058-1.766-.376-.663-.265-1.519.387-1.912.523-.315,1.427-.315,2.059.573,1.206,1.695,1.759,2.871,2.534,4.183.155.263.456.623,1.451.583.635-.026,1.114-.197,1.146-.964.048-1.164.036-2.222-.062-3.564-.082-1.131-.423-2.454.893-2.795,1.075-.279,1.758.501,3.06,3.349.394.862.862,1.977,1.449,3.282.129.287.425.813,1.101.802.71-.012.938-.324.965-1.257.049-1.686-.154-3.164-.342-4.631-.169-1.32.321-1.776.908-1.852.963-.124,1.658.695,2.364,2.128.549,1.112,1.194,2.279,2.5,4.583.348.614.839.827,1.541.82,3.957-.043,25.823-.366,34.09-1.115,1.553-.141,2.667-.186,2.965.985.186.731-.535,1.553-1.584,1.955-9.768,3.747-16.172,5.348-28.28,8.752-1.13.318-1.295.518-.578,1.564,2.516,3.672,5.792,7.547,9.58,11.712.45.495.48,1.24.071,1.771-.273.352-.689.541-1.11.535ZM40.708,23.868c12.073.992,18.201,2.297,24.651,4.275,3.056.937,3.931,1.628,1.042-1.735-1.986-2.312-3.231-3.943-5.185-6.594-.502-.681-.765-.678-1.445-.548-7.38,1.411-11.878,2.363-19.115,3.516-4.75.757-3.302.811.052,1.087ZM59.343,12.072c.637,1.054,1.315,2.064,2.11,3.204.254.364.571.76,1.381.54,6.311-1.715,13.681-3.631,20.389-5.547.715-.204,1.329-.517-.034-.477-6.558.193-13.657.468-22.893.651-1.897.037-1.809.214-.953,1.63ZM53.737,7.826v.038c.006,0,.014,0,.021,0-.008-.014-.014-.026-.021-.038Z" fill="#000" stroke-width="0"/>
</svg>